<?xml version="1.0" standalone="no"?>
<!DOCTYPE svg PUBLIC "-//W3C//DTD SVG 20010904//EN"
 "http://www.w3.org/TR/2001/REC-SVG-20010904/DTD/svg10.dtd">
<svg version="1.0" xmlns="http://www.w3.org/2000/svg"
 width="1024.000000pt" height="1024.000000pt" viewBox="0 0 1024.000000 1024.000000"
 preserveAspectRatio="xMidYMid meet">
<metadata>
Created by potrace 1.11, written by Peter Selinger 2001-2013
</metadata>
<g transform="translate(0.000000,1024.000000) scale(0.100000,-0.100000)"
fill="#000000" stroke="none">
<path d="M2769 10236 c-2 -2 -25 -7 -51 -10 -143 -19 -344 -113 -455 -211
-177 -158 -268 -313 -331 -565 -11 -44 -12 -8580 -1 -8635 5 -27 12 -61 14
-75 11 -75 74 -217 140 -315 74 -110 163 -198 275 -269 122 -78 221 -117 370
-145 46 -8 4733 -8 4785 1 188 30 396 139 528 275 98 101 194 257 227 368 6
22 14 47 16 55 33 101 33 96 33 4415 0 4212 0 4261 -19 4345 -22 92 -27 114
-30 118 -2 1 -3 5 -4 10 -8 46 -114 234 -165 292 -76 86 -114 121 -187 173
-95 67 -246 136 -332 152 -15 2 -49 9 -77 14 -47 10 -4726 16 -4736 7z m498
-959 c3 -3 16 -2 29 3 14 6 26 6 29 -1 4 -5 11 -6 17 -3 5 3 83 6 173 6 90 0
168 -3 173 -6 6 -3 13 -2 17 3 3 7 15 7 30 1 15 -6 27 -6 30 0 3 5 15 6 27 1
12 -4 36 -5 54 -1 18 4 38 4 45 -1 7 -4 20 -4 29 1 9 5 22 5 30 0 7 -4 20 -6
27 -3 21 8 263 9 263 1 0 -4 14 -3 30 2 17 5 30 5 30 0 0 -5 13 -5 30 0 17 5
32 5 35 0 3 -5 16 -5 30 0 13 5 27 6 29 1 3 -4 26 -5 50 -1 25 4 51 3 58 -1 6
-4 19 -4 28 1 9 5 22 5 30 0 7 -4 20 -6 27 -3 21 8 263 9 263 1 0 -4 14 -3 30
2 17 5 30 5 30 0 0 -5 13 -5 30 0 17 5 32 5 35 0 3 -5 16 -5 30 0 13 5 26 6
29 2 3 -5 30 -5 61 -2 31 3 58 3 61 -2 3 -4 16 -3 29 2 15 6 27 6 30 -1 4 -5
11 -6 17 -3 5 3 83 6 173 6 90 0 168 -3 173 -6 6 -3 13 -2 17 3 3 7 15 7 30 1
15 -6 27 -6 30 0 3 5 13 6 21 3 25 -9 57 -10 81 -1 12 4 25 3 28 -2 3 -5 18
-5 35 0 16 5 32 5 35 0 3 -5 19 -5 35 0 17 5 32 5 35 0 3 -5 16 -5 30 0 15 6
27 6 30 -1 4 -5 11 -6 17 -3 6 4 32 7 58 7 26 0 52 -3 58 -7 6 -3 13 -2 17 3
3 7 15 7 30 1 15 -6 27 -6 30 0 3 6 15 6 30 0 15 -6 27 -6 30 0 3 6 15 6 30 0
15 -6 27 -6 30 0 3 6 15 6 30 0 15 -6 27 -6 30 0 3 6 15 6 30 0 15 -6 27 -6
30 0 3 6 15 6 30 0 15 -6 27 -6 30 0 3 6 15 6 30 0 15 -6 27 -6 30 0 3 6 15 6
30 0 15 -6 27 -6 30 0 3 5 13 6 21 3 25 -9 57 -10 81 -1 12 4 25 3 28 -2 3 -5
18 -5 35 0 16 5 32 5 35 0 3 -5 19 -5 35 0 17 5 32 5 35 0 3 -5 15 -6 29 0 12
4 29 4 36 0 8 -5 18 -6 23 -3 8 5 83 7 97 3 3 -1 23 -3 45 -4 110 -9 197 -94
211 -205 3 -25 7 -48 10 -53 3 -4 2 -8 -3 -8 -9 0 -8 -108 1 -117 3 -3 1 -13
-4 -22 -5 -10 -5 -23 0 -30 4 -8 4 -27 0 -42 -5 -16 -5 -29 0 -29 5 0 5 -13 0
-30 -5 -17 -5 -30 0 -30 5 0 5 -13 0 -30 -5 -17 -5 -30 0 -30 5 0 5 -13 0 -30
-5 -17 -5 -30 0 -30 5 0 5 -13 0 -30 -5 -16 -6 -30 -2 -30 8 0 7 -68 -1 -76
-3 -3 -2 -17 3 -30 6 -14 6 -26 0 -29 -5 -3 -6 -16 -1 -28 8 -22 6 -69 -3 -94
-3 -7 -1 -13 4 -13 5 0 5 -13 0 -30 -5 -17 -5 -32 0 -35 5 -3 6 -15 0 -29 -4
-12 -4 -29 0 -36 5 -8 5 -21 0 -30 -5 -9 -5 -22 0 -30 5 -8 6 -19 3 -24 -8
-13 -7 -102 2 -116 3 -5 2 -10 -4 -10 -6 0 -6 -11 -1 -30 5 -17 5 -30 0 -30
-5 0 -5 -13 0 -30 5 -17 5 -30 0 -30 -5 0 -5 -13 0 -30 5 -17 5 -30 0 -30 -5
0 -5 -13 0 -30 5 -17 5 -30 0 -30 -5 0 -5 -13 0 -30 5 -17 5 -30 0 -30 -5 0
-5 -13 0 -30 5 -17 5 -30 0 -30 -5 0 -5 -13 0 -30 5 -17 5 -30 0 -30 -5 0 -5
-13 0 -30 5 -17 5 -30 0 -30 -5 0 -7 -6 -4 -13 9 -24 10 -71 3 -99 -4 -16 -4
-28 1 -28 5 0 5 -13 0 -30 -5 -17 -5 -32 0 -35 5 -3 6 -15 0 -29 -4 -12 -4
-29 0 -36 5 -8 5 -21 0 -30 -5 -9 -5 -22 0 -30 5 -8 6 -18 3 -23 -8 -12 -7
-106 0 -114 4 -3 2 -13 -3 -22 -5 -10 -5 -23 0 -30 4 -8 4 -27 0 -42 -5 -16
-5 -29 0 -29 5 0 5 -13 0 -30 -5 -17 -5 -30 0 -30 5 0 5 -13 0 -30 -5 -17 -5
-30 0 -30 5 0 5 -13 0 -30 -5 -17 -5 -30 0 -30 5 0 5 -13 0 -30 -5 -16 -6 -30
-2 -30 8 0 7 -68 -1 -76 -3 -3 -2 -17 3 -30 6 -14 6 -26 0 -29 -5 -3 -6 -16
-1 -28 8 -22 6 -69 -3 -94 -3 -7 -1 -13 4 -13 5 0 5 -13 0 -30 -5 -17 -5 -32
0 -35 5 -3 6 -15 0 -29 -4 -12 -4 -29 0 -36 5 -8 5 -21 0 -30 -5 -9 -5 -22 0
-30 5 -8 6 -19 3 -24 -8 -13 -7 -102 2 -116 3 -5 2 -10 -4 -10 -6 0 -6 -11 -1
-30 5 -17 5 -30 0 -30 -5 0 -5 -13 0 -30 5 -17 5 -30 0 -30 -5 0 -5 -13 0 -30
5 -17 5 -30 0 -30 -5 0 -5 -13 0 -30 5 -17 5 -30 0 -30 -5 0 -5 -13 0 -30 5
-17 5 -30 0 -30 -5 0 -5 -13 0 -30 5 -17 5 -30 0 -30 -5 0 -5 -13 0 -30 5 -17
5 -30 0 -30 -5 0 -5 -13 0 -30 5 -17 5 -30 0 -30 -5 0 -7 -6 -4 -13 9 -24 10
-71 3 -99 -4 -16 -4 -28 1 -28 5 0 5 -13 0 -30 -5 -17 -5 -32 0 -35 5 -3 6
-15 0 -29 -4 -12 -4 -29 0 -36 5 -8 5 -21 0 -30 -5 -9 -5 -22 0 -30 5 -8 5
-21 0 -30 -5 -9 -5 -22 0 -29 4 -8 4 -27 0 -42 -5 -16 -5 -29 0 -29 5 0 5 -13
0 -30 -5 -17 -5 -32 0 -35 5 -3 6 -15 0 -29 -4 -12 -4 -29 0 -36 5 -8 5 -21 0
-30 -5 -9 -5 -22 0 -30 5 -8 6 -19 3 -24 -8 -13 -7 -102 2 -116 3 -5 2 -10 -4
-10 -6 0 -6 -11 -1 -30 5 -17 5 -30 0 -30 -5 0 -5 -13 0 -30 5 -17 5 -30 0
-30 -5 0 -5 -13 0 -30 5 -17 5 -30 0 -30 -5 0 -5 -13 0 -30 5 -17 5 -30 0 -30
-5 0 -5 -13 0 -30 5 -17 5 -30 0 -30 -5 0 -5 -13 0 -30 5 -17 5 -30 0 -30 -5
0 -5 -13 0 -30 5 -17 5 -30 0 -30 -5 0 -5 -13 0 -30 5 -17 5 -30 0 -30 -5 0
-7 -6 -4 -13 9 -24 10 -71 3 -99 -4 -16 -4 -28 1 -28 5 0 5 -13 0 -30 -5 -17
-5 -32 0 -35 5 -3 6 -15 0 -29 -4 -12 -4 -29 0 -36 5 -8 5 -21 0 -30 -5 -9 -5
-22 0 -30 5 -8 6 -18 3 -23 -8 -12 -7 -106 0 -114 4 -3 2 -13 -3 -22 -5 -10
-5 -23 0 -30 4 -8 4 -27 0 -42 -5 -16 -5 -29 0 -29 5 0 5 -13 0 -30 -5 -17 -5
-30 0 -30 5 0 5 -13 0 -30 -5 -17 -5 -30 0 -30 5 0 5 -13 0 -30 -5 -17 -5 -30
0 -30 5 0 5 -13 0 -30 -5 -16 -6 -30 -2 -30 8 0 7 -68 -1 -76 -3 -3 -2 -17 3
-30 6 -14 6 -26 0 -29 -5 -3 -6 -16 -1 -28 8 -22 6 -69 -3 -94 -3 -7 -1 -13 4
-13 5 0 5 -13 0 -30 -5 -17 -5 -32 0 -35 5 -3 6 -15 0 -29 -4 -12 -4 -29 0
-36 5 -8 5 -21 0 -30 -5 -9 -5 -22 0 -30 5 -8 6 -18 3 -24 -3 -5 -5 -32 -4
-60 1 -28 2 -55 2 -61 1 -35 -14 -92 -31 -115 -11 -16 -20 -32 -20 -37 0 -13
-78 -68 -110 -79 -44 -14 -171 -21 -190 -9 -5 3 -11 1 -15 -4 -3 -6 -15 -7
-28 -2 -13 5 -30 5 -39 0 -10 -5 -19 -5 -22 0 -3 4 -23 5 -43 2 -21 -4 -53 -4
-70 0 -18 3 -33 3 -33 -1 0 -4 -18 -4 -40 0 -22 4 -43 4 -46 -1 -2 -4 -15 -4
-27 0 -13 5 -30 5 -39 0 -10 -5 -19 -5 -22 0 -3 4 -23 5 -43 2 -21 -4 -53 -4
-70 0 -18 3 -33 3 -33 -1 0 -4 -18 -4 -40 0 -22 4 -43 4 -46 -1 -2 -4 -15 -4
-27 0 -13 5 -30 5 -39 0 -10 -5 -19 -5 -22 0 -3 4 -23 5 -43 2 -21 -4 -53 -4
-70 0 -18 3 -33 3 -33 -1 0 -4 -18 -4 -40 0 -22 4 -43 4 -46 -1 -2 -4 -15 -4
-27 0 -13 5 -30 5 -39 0 -10 -5 -19 -5 -22 0 -3 4 -23 5 -43 2 -21 -4 -53 -4
-70 0 -18 3 -33 3 -33 -1 0 -4 -18 -4 -40 0 -22 4 -43 4 -46 -1 -2 -4 -15 -4
-27 0 -13 5 -30 5 -39 0 -10 -5 -19 -5 -22 0 -3 4 -23 5 -43 2 -21 -4 -53 -4
-70 0 -18 3 -33 3 -33 -1 0 -4 -18 -4 -40 0 -22 4 -43 4 -46 -1 -2 -4 -15 -4
-27 0 -13 5 -30 5 -39 0 -10 -5 -19 -5 -22 0 -3 4 -23 5 -43 2 -21 -4 -53 -4
-70 0 -18 3 -33 4 -33 0 0 -7 -89 -6 -96 2 -4 3 -17 2 -30 -3 -14 -6 -26 -6
-29 0 -3 6 -15 6 -30 0 -15 -6 -27 -6 -30 0 -3 6 -15 6 -30 0 -15 -6 -27 -6
-30 0 -3 6 -15 6 -30 0 -15 -6 -27 -6 -30 0 -3 6 -15 6 -30 0 -15 -6 -27 -6
-30 0 -3 6 -15 6 -30 0 -15 -6 -27 -6 -30 0 -3 6 -15 6 -30 0 -15 -6 -27 -6
-30 0 -3 6 -15 6 -30 0 -15 -6 -27 -6 -30 0 -3 6 -15 6 -30 0 -15 -6 -27 -6
-30 0 -3 6 -15 6 -30 0 -15 -6 -27 -6 -30 0 -3 6 -15 6 -30 0 -15 -6 -27 -6
-30 0 -3 6 -15 6 -30 0 -15 -6 -27 -6 -30 0 -3 6 -15 6 -30 0 -15 -6 -27 -6
-30 0 -3 6 -15 6 -30 0 -15 -6 -27 -6 -30 0 -3 6 -15 6 -30 0 -15 -6 -27 -6
-30 0 -3 6 -15 6 -30 0 -15 -6 -27 -6 -30 0 -3 6 -15 6 -30 0 -15 -6 -27 -6
-30 0 -3 6 -15 6 -30 0 -15 -6 -27 -6 -30 0 -3 6 -15 6 -30 0 -15 -6 -27 -6
-30 0 -3 6 -15 6 -30 0 -15 -6 -27 -6 -30 0 -3 6 -15 6 -30 0 -15 -6 -27 -6
-30 0 -3 6 -15 6 -30 0 -15 -6 -27 -6 -30 0 -3 6 -15 6 -30 0 -15 -6 -27 -6
-30 0 -3 6 -15 6 -30 0 -15 -6 -27 -6 -30 0 -3 6 -15 6 -30 0 -15 -6 -27 -6
-30 0 -3 6 -15 6 -30 0 -15 -6 -27 -6 -30 0 -3 6 -15 6 -30 0 -15 -6 -27 -6
-30 0 -3 6 -15 6 -30 0 -15 -6 -27 -6 -30 0 -3 6 -15 6 -30 0 -15 -6 -27 -6
-30 0 -3 6 -15 6 -30 0 -15 -6 -27 -6 -30 0 -3 6 -15 6 -30 0 -15 -6 -27 -6
-30 0 -3 6 -15 6 -29 0 -13 -5 -26 -6 -30 -3 -3 3 -25 6 -48 8 -69 3 -125 34
-171 96 -32 43 -49 104 -47 169 2 75 1 111 -5 120 -3 5 -2 10 4 10 6 0 6 11 1
30 -5 17 -5 30 0 30 5 0 5 13 0 30 -5 17 -5 30 0 30 5 0 5 13 0 30 -5 17 -5
30 0 30 5 0 5 13 0 30 -5 17 -5 30 0 30 5 0 5 13 0 30 -5 17 -5 30 0 30 5 0 5
13 0 30 -5 17 -5 30 0 30 5 0 5 13 0 30 -5 17 -5 30 0 30 5 0 5 13 0 30 -5 17
-5 30 0 30 5 0 7 6 4 13 -9 24 -10 71 -3 100 4 15 4 27 -1 27 -5 0 -5 13 0 30
5 17 5 32 0 35 -5 3 -6 15 0 29 4 12 4 29 0 36 -5 8 -5 21 0 30 5 9 5 22 0 30
-5 8 -6 18 -3 23 8 12 7 106 0 114 -4 3 -2 13 3 22 5 10 5 23 0 30 -4 8 -4 27
0 42 5 16 5 29 0 29 -5 0 -5 13 0 30 5 17 5 30 0 30 -5 0 -5 13 0 30 5 17 5
30 0 30 -5 0 -5 13 0 30 5 17 5 30 0 30 -5 0 -5 13 0 30 5 17 6 30 2 30 -8 0
-7 68 1 76 3 3 2 17 -3 30 -6 14 -6 26 0 29 5 3 6 16 1 28 -8 22 -6 69 3 94 3
7 1 13 -4 13 -5 0 -5 13 0 30 5 17 5 32 0 35 -5 3 -6 15 0 29 4 12 4 29 0 36
-5 8 -5 21 0 30 5 9 5 22 0 30 -5 8 -6 19 -3 24 8 13 7 102 -2 116 -3 5 -2 10
4 10 6 0 6 11 1 30 -5 17 -5 30 0 30 5 0 5 13 0 30 -5 17 -5 30 0 30 5 0 5 13
0 30 -5 17 -5 30 0 30 5 0 5 13 0 30 -5 17 -5 30 0 30 5 0 5 13 0 30 -5 17 -5
30 0 30 5 0 5 13 0 30 -5 17 -5 30 0 30 5 0 5 13 0 30 -5 17 -5 30 0 30 5 0 5
13 0 30 -5 17 -5 30 0 30 5 0 7 6 4 13 -9 24 -10 71 -3 100 4 15 4 27 -1 27
-5 0 -5 13 0 30 5 17 5 32 0 35 -5 3 -6 15 0 29 4 12 4 29 0 36 -5 8 -5 21 0
30 5 9 5 22 0 30 -5 8 -6 18 -3 23 8 12 7 106 0 114 -4 3 -2 13 3 22 5 10 5
23 0 30 -4 8 -4 27 0 42 5 16 5 29 0 29 -5 0 -5 13 0 30 5 17 5 30 0 30 -5 0
-5 13 0 30 5 17 5 30 0 30 -5 0 -5 13 0 30 5 17 5 30 0 30 -5 0 -5 13 0 30 5
17 6 30 2 30 -8 0 -7 68 1 76 3 3 2 17 -3 30 -6 14 -6 26 0 29 5 3 6 16 1 28
-8 22 -6 69 3 94 3 7 1 13 -4 13 -5 0 -5 13 0 30 5 17 5 32 0 35 -5 3 -6 15 0
29 4 12 4 29 0 36 -5 8 -5 21 0 30 5 9 5 22 0 30 -5 8 -6 19 -3 24 8 13 7 102
-2 116 -3 5 -2 10 4 10 6 0 6 11 1 30 -5 17 -5 30 0 30 5 0 5 13 0 30 -5 17
-5 30 0 30 5 0 5 13 0 30 -5 17 -5 30 0 30 5 0 5 13 0 30 -5 17 -5 30 0 30 5
0 5 13 0 30 -5 17 -5 30 0 30 5 0 5 13 0 30 -5 17 -5 30 0 30 5 0 5 13 0 30
-5 17 -5 30 0 30 5 0 5 13 0 30 -5 17 -5 30 0 30 5 0 7 6 4 13 -9 24 -10 71
-3 100 4 15 4 27 -1 27 -5 0 -5 13 0 30 5 17 5 32 0 35 -5 3 -6 15 0 29 4 12
4 29 0 36 -5 8 -5 21 0 30 5 9 5 22 0 30 -5 8 -6 18 -3 23 9 14 9 69 1 94 -4
12 -3 25 2 28 6 3 6 15 0 29 -5 13 -6 27 -3 30 8 8 9 76 1 76 -4 0 -3 14 2 30
5 17 5 30 0 30 -5 0 -5 13 0 30 5 17 5 30 0 30 -5 0 -5 13 0 30 5 17 5 32 0
35 -5 3 -5 16 0 30 6 15 6 27 0 30 -5 3 -6 15 0 29 4 12 4 29 0 36 -5 8 -5 21
0 30 5 9 5 22 1 29 -5 7 -5 29 -1 50 4 21 3 47 -1 59 -5 12 -4 24 1 27 6 3 6
15 0 29 -5 13 -6 27 -3 30 8 8 9 76 1 76 -4 0 -3 14 2 30 5 17 5 30 0 30 -5 0
-5 13 0 30 5 17 5 30 0 30 -5 0 -5 13 0 30 5 17 5 32 0 35 -5 3 -5 16 0 30 6
15 6 27 0 30 -5 3 -6 15 0 29 4 12 4 29 0 36 -5 8 -5 21 0 30 5 9 5 22 1 28
-4 7 -5 33 -1 57 4 24 3 50 -1 57 -4 6 -6 15 -3 19 2 4 6 25 9 47 13 106 117
200 220 198 25 -1 45 1 45 4 0 7 110 4 117 -3z m2025 -7381 c32 -10 59 -16 62
-14 2 2 13 -6 25 -16 12 -11 21 -16 21 -13 0 18 113 -66 176 -129 51 -51 84
-96 112 -153 23 -45 41 -82 41 -84 -1 -1 5 -22 12 -47 25 -91 20 -240 -14
-365 -2 -5 -8 -19 -14 -30 -6 -11 -12 -24 -12 -30 -4 -25 -64 -115 -111 -167
-42 -47 -167 -142 -189 -143 -3 -1 -15 -6 -26 -12 -23 -12 -80 -31 -122 -40
-38 -9 -231 -7 -268 2 -16 4 -37 8 -45 10 -8 2 -16 4 -17 5 -2 2 -6 3 -10 4
-5 1 -25 10 -47 19 -21 9 -40 17 -42 17 -2 0 -28 16 -57 36 -63 44 -157 134
-157 152 0 6 -4 12 -10 12 -18 0 -90 167 -105 241 -20 105 -13 235 19 333 14
44 29 82 33 85 5 3 17 24 28 46 11 21 54 73 95 115 95 96 204 155 325 177 17
2 32 7 34 8 10 11 214 -5 263 -19z"/>
</g>
</svg>
